<svg width="658" height="482" viewBox="0 0 658 482" fill="none" xmlns="http://www.w3.org/2000/svg">
<path d="M508.079 92.2136C487.107 69.8294 470.872 43.1067 445.805 24.8392C406.431 -3.91515 349.764 -6.71872 303.724 11.3448C257.685 29.4083 221.82 65.8192 198.181 107.048C185.746 128.74 175.979 152.402 157.758 170.128C142.355 185.104 122.11 194.659 102.915 205.066C71.9669 221.799 42.1627 242.018 22.1357 269.761C2.10864 297.504 -6.84584 333.942 5.95709 365.207C14.5901 386.304 31.979 403.09 49.7934 418.288C70.7565 436.157 93.2893 452.889 119.292 463.536C151.848 476.782 187.987 479.63 223.427 480.978C286.255 483.358 349.184 481.579 411.746 475.655C462.976 470.811 515.757 462.542 558.62 435.775C618.663 398.291 649.621 329.612 656.59 262.264C659.426 235.329 658.708 207.337 647.626 182.345C621.122 122.565 549.609 136.547 508.079 92.2136Z" fill="#EFF1F7"/>
</svg>
