<svg width="327" height="270" viewBox="0 0 327 270" fill="none" xmlns="http://www.w3.org/2000/svg">
<path d="M120.666 108.226C120.666 108.226 109.513 106.233 106.389 114.088C103.264 121.942 106.389 149.069 106.389 149.069L148 179L120.666 108.226Z" fill="#3F3D56"/>
<path d="M173.717 228.909L156.916 233.814C154.475 234.521 151.915 233.148 151.188 230.744C150.472 228.337 151.864 225.812 154.302 225.096L171.079 220.186C173.519 219.479 176.079 220.849 176.807 223.251C177.532 225.654 176.15 228.183 173.717 228.909Z" fill="#2BD0D0"/>
<circle cx="172.5" cy="238.5" r="7.5" fill="#25233A"/>
<circle cx="171.5" cy="240.5" r="3.5" fill="#3F3D56"/>
<circle cx="142.5" cy="231.5" r="7.5" fill="#25233A"/>
<path d="M145 231.5C145 233.433 143.433 235 141.5 235C139.567 235 138 233.433 138 231.5C138 229.567 139.567 228 141.5 228C143.433 228 145 229.567 145 231.5Z" fill="url(#paint0_linear_0_355)"/>
<circle cx="140.5" cy="241.5" r="7.5" fill="#25233A"/>
<path d="M146 241.5C146 243.433 144.433 245 142.5 245C140.567 245 139 243.433 139 241.5C139 239.567 140.567 238 142.5 238C144.433 238 146 239.567 146 241.5Z" fill="#3F3D56"/>
<path d="M174.682 235.913L140.56 228.924C138.158 228.425 136.606 226.05 137.087 223.612C137.579 221.177 139.916 219.602 142.318 220.088L176.44 227.063C178.842 227.562 180.394 229.937 179.913 232.375C179.427 234.816 177.088 236.397 174.682 235.913Z" fill="#2BD0D0"/>
<path d="M154 181H163V221.227C163 223.863 160.986 226 158.502 226C156.018 226 154.004 223.863 154.004 221.227V181H154Z" fill="#2BD0D0"/>
<path d="M156.707 232.896L139.918 237.813C137.477 238.523 134.914 237.149 134.188 234.741C133.472 232.333 134.863 229.807 137.3 229.09L154.089 224.186C156.527 223.479 159.086 224.85 159.814 227.253C160.525 229.657 159.137 232.177 156.707 232.896Z" fill="#2BD0D0"/>
<path d="M160 233.26L157.917 233.811C157.295 233.974 156.645 234.033 156 233.983L156.87 233.755C157.475 233.598 158.042 233.342 158.542 233L160 233.26Z" fill="url(#paint1_linear_0_355)"/>
<path d="M177 223.288C176.999 224.277 176.648 225.236 176.005 226L162 223.232C162.352 222.763 162.607 222.231 162.749 221.665L171.376 219.169C172.499 218.852 173.704 218.985 174.726 219.537C175.749 220.089 176.505 221.016 176.828 222.113C176.94 222.495 176.998 222.891 177 223.288Z" fill="url(#paint2_linear_0_355)"/>
<path opacity="0.31" d="M153.147 222.382C153.049 222.033 153 221.677 153 221.32V182H156.962V224.376C156.923 224.584 156.936 224.796 157 225C156.4 224.788 155.757 224.672 155.104 224.657C154.643 224.63 154.18 224.63 153.719 224.657L154.003 224.59C154.177 224.563 153.376 223.185 153.147 222.382Z" fill="url(#paint3_linear_0_355)"/>
<path opacity="0.31" d="M177.522 235.035C176.87 235.405 176.137 235.598 175.392 235.597C175.093 235.596 174.794 235.566 174.499 235.506L159.444 232.395L158.19 232.139C157.761 232.476 157.275 232.729 156.757 232.884L156.011 233.108L140.541 237.813C138.18 238.524 135.702 237.147 135 234.734C136.342 236.008 138.379 236.127 139.853 235.017C141.742 233.679 149.26 231.669 153.52 230.6C155.533 230.108 157.073 228.448 157.449 226.365C157.459 226.243 157.477 226.121 157.502 226C158.212 226.786 159.516 227.667 161.873 228.416C167.677 230.244 177.102 231.454 177.102 231.454C177.102 231.454 178.803 233.163 177.522 235.035Z" fill="url(#paint4_linear_0_355)"/>
<path d="M179 234C178.736 234.389 178.397 234.728 178 235C178.269 234.74 178.614 234.392 179 234Z" fill="url(#paint5_linear_0_355)"/>
<path d="M153.866 222.464C154.051 223.274 154.442 224.021 155 224.63C154.861 224.658 154.717 224.694 154.573 224.735L140.392 229C138.211 228.437 136.775 226.324 137.029 224.053C137.283 221.782 139.15 220.051 141.4 220C141.702 220.001 142.003 220.031 142.3 220.091L153.866 222.464Z" fill="url(#paint6_linear_0_355)"/>
<path d="M175 31.8247C175 31.8247 174.814 17.7591 163.531 18.972C152.249 20.1849 153.114 15.528 148.294 16.0394C143.475 16.5508 137.877 21.3027 139.485 27.1724C141.093 33.0421 135.231 34.3545 131.381 38.8077C127.531 43.2609 132.287 46.904 138.773 51.2577C145.26 55.6113 138.37 54.4844 142.216 61.3679C146.061 68.2513 159.079 59.458 159.079 59.458L175 31.8247Z" fill="#503164"/>
<path d="M82.8394 265.73L90.7905 266V202.388C90.7905 202.388 91.191 185.938 106.688 184.288C122.185 182.638 262.732 162.257 262.732 162.257C262.732 162.257 268.303 161.667 271.511 172.369C274.719 183.071 277.842 225.153 277.842 225.153L320.981 230.973C320.981 230.973 322.12 156.636 306.542 152.533C290.963 148.431 87.2356 169.335 87.2356 169.335C87.2356 169.335 72.1254 248.288 82.8394 265.73Z" fill="#2BD0D0"/>
<path opacity="0.197289" d="M82.8394 265.73L90.7905 266V202.388C90.7905 202.388 91.191 185.938 106.688 184.288C122.185 182.638 262.732 162.257 262.732 162.257C262.732 162.257 268.303 161.667 271.511 172.369C274.719 183.071 277.842 225.153 277.842 225.153L320.981 230.973C320.981 230.973 322.12 156.636 306.542 152.533C290.963 148.431 87.2356 169.335 87.2356 169.335C87.2356 169.335 72.1254 248.288 82.8394 265.73Z" fill="url(#paint7_linear_0_355)"/>
<path d="M42 176.479C42 176.479 45.8977 154.891 73.3121 149.233L266.829 127.042C266.829 127.042 285.827 126.253 294.518 131.52C303.209 136.786 315.613 141.151 320.699 164.982C325.785 188.813 327 229.524 327 229.524L322.189 230.272C322.189 230.272 315.167 156.553 307.728 151.886C300.288 147.219 99.1332 175.852 99.1332 175.852C99.1332 175.852 85.1807 178.632 83.9655 199.328C82.7503 220.023 83.9655 265 83.9655 265L42 248.044V176.479Z" fill="#2BD0D0"/>
<path opacity="0.19" d="M241.579 135.918C231.55 134.637 221.439 133.709 211.333 134.084C203.738 134.376 196.192 135.41 188.66 136.439L122.233 145.546C121.106 145.701 119.821 145.952 119.258 146.925C118.176 148.78 120.718 150.61 122.778 151.317C144.865 158.908 168.462 166.596 191.198 161.183C201.592 158.709 211.248 153.57 221.791 151.785C232.334 150 243.156 151.644 253.677 149.96C263.567 148.378 272.983 143.885 283.008 143.84C286.082 143.84 289.246 144.229 292.162 143.275C295.079 142.32 297.657 139.404 296.85 136.497C287.438 136.174 276.873 134.469 267.641 136.32C258.505 138.149 250.729 135.918 241.579 135.918Z" fill="url(#paint8_linear_0_355)"/>
<path d="M181 146.587L181.384 147.996C181.384 147.996 192.765 154.778 192.693 154.997C192.622 155.215 239.9 144.17 239.9 144.17L241 141L181 146.587Z" fill="#2BD0D0"/>
<path d="M181 146.587L181.384 147.996C181.384 147.996 192.765 154.778 192.693 154.997C192.622 155.215 239.9 144.17 239.9 144.17L241 141L181 146.587Z" fill="url(#paint9_linear_0_355)"/>
<path d="M182 147.112L224.345 138L242 141.446L193.893 153L182 147.112Z" fill="#2BD0D0"/>
<path d="M182 147.112L224.345 138L242 141.446L193.893 153L182 147.112Z" fill="url(#paint10_linear_0_355)"/>
<path d="M168.221 154.656L177.859 154.997C177.859 154.997 180.307 155.149 180.94 153.186C181.573 151.223 177.013 147.08 176.524 147.001C176.036 146.923 163.352 150.481 165.18 154.039L168.221 154.656Z" fill="#2BD0D0"/>
<path d="M168.221 154.656L177.859 154.997C177.859 154.997 180.307 155.149 180.94 153.186C181.573 151.223 177.013 147.08 176.524 147.001C176.036 146.923 163.352 150.481 165.18 154.039L168.221 154.656Z" fill="url(#paint11_linear_0_355)"/>
<path d="M54 252.731L49.2003 267.738C35.2788 272.828 23.4424 267.738 23.4424 267.738L20 252C20 252 37.3639 257.926 54 252.731Z" fill="#2BD0D0"/>
<path d="M54 252.731L49.2003 267.738C35.2788 272.828 23.4424 267.738 23.4424 267.738L20 252C20 252 37.3639 257.926 54 252.731Z" fill="url(#paint12_linear_0_355)"/>
<path d="M59 239L57.4539 250.787L53.537 252.879C36.8521 258.041 19.4099 252.157 19.4099 252.157L16.4027 249.873L15 239H59Z" fill="#2BD0D0"/>
<path d="M59 239L57.4539 250.787L53.537 252.879C36.8521 258.041 19.4099 252.157 19.4099 252.157L16.4027 249.873L15 239H59Z" fill="url(#paint13_linear_0_355)"/>
<ellipse cx="37" cy="239" rx="22" ry="4" fill="#2BD0D0"/>
<ellipse cx="37" cy="239" rx="22" ry="4" fill="url(#paint14_linear_0_355)"/>
<path d="M27.1616 150.91C24.9809 149.88 22.6374 149.102 20.7507 147.597C16.9503 144.537 15.9867 139.266 14.7968 134.538C13.6069 129.81 11.3041 124.611 6.61238 123.255C4.85697 122.754 2.79842 122.952 1.46376 124.2C0.0567119 125.515 -0.228317 127.676 0.156246 129.584C0.540809 131.491 1.47733 133.2 2.20122 135.008C3.89161 139.207 4.40616 143.787 3.6897 148.257C3.09702 151.923 1.68093 155.638 2.59031 159.232C4.13308 165.33 11.8198 168.905 12.0325 175.188C12.1772 179.428 8.6845 183.352 9.47625 187.524C10.0599 190.611 12.9056 193.021 13.0595 196.158C13.2314 199.715 9.86534 202.726 10.0282 206.283C10.1911 209.84 13.7472 212.218 16.0681 215.016C18.0139 217.366 19.1708 220.268 19.3754 223.311C19.4975 225.209 19.2532 227.176 19.873 228.975C20.3255 230.29 21.2303 231.406 21.9316 232.591C22.7052 233.87 23.2889 235.253 24.2209 236.438C26.6182 239.457 30.6157 240.71 34.31 239.602C35.0293 234.874 34.4005 230.05 34.5995 225.273C34.9932 216.015 38.4995 206.685 36.2554 197.699C35.432 194.404 33.8485 191.276 33.568 187.895C33.3192 184.875 34.1245 181.883 34.6855 178.904C35.8437 172.752 35.8256 166.392 35.3506 160.172C34.9751 155.236 31.5004 152.962 27.1616 150.91Z" fill="#2BD0D0"/>
<path d="M40.2266 175.179C40.1909 179.302 41.1206 183.565 39.8154 187.481C38.8275 190.448 36.6552 192.878 35.5332 195.795C32.9452 202.529 36.4272 210.08 35.7165 217.27C35.4215 220.232 34.4158 223.077 33.781 225.986C32.9927 229.668 32.7995 233.455 33.2089 237.199C33.1223 238.609 34.075 239.868 35.4438 240.153C37.6339 240.997 39.9027 241.616 42.2157 242C41.4338 237.641 42.2574 233.143 44.5311 229.355C48.0758 223.484 54.9639 219.528 56.2467 212.785C57.1139 208.219 55.0935 203.586 55.2365 198.938C55.3395 195.846 56.3924 192.863 58.2492 190.403C59.9165 188.208 62.1738 186.51 63.7248 184.234C67.4527 178.747 66.2906 171.412 65.182 164.85C64.0735 158.288 63.4298 150.737 67.8103 145.765C69.196 144.194 71.0018 143.015 72.2579 141.335C75.056 137.591 74.3498 131.824 71.0957 128.477C67.8416 125.131 62.6029 124.205 58.1777 125.677C56.3111 126.233 54.6636 127.365 53.4664 128.915C51.2315 132.122 52.1255 136.502 53.0731 140.314C53.9 143.624 54.566 147.445 53.4352 150.783C52.5903 153.266 50.4493 154.612 48.63 156.342C43.4201 161.212 40.3879 168.009 40.2266 175.179Z" fill="#2BD0D0"/>
<path d="M36.3575 211.785C35.7148 216.27 34.787 220.791 34.597 225.289V225.741C34.5868 225.853 34.5609 225.962 34.52 226.066C33.7173 229.752 33.5171 233.542 33.9271 237.292C33.9515 237.899 34.1058 238.494 34.3797 239.037C34.3571 239.226 34.3299 239.412 34.3028 239.602C30.6073 240.71 26.6086 239.457 24.2104 236.437C23.3053 235.253 22.6943 233.869 21.9204 232.59C21.1963 231.401 20.3138 230.284 19.8612 228.973C19.2412 227.165 19.4856 225.208 19.3634 223.309C19.1588 220.265 18.0015 217.363 16.0551 215.013C13.7334 212.233 10.1717 209.9 10.0133 206.284C9.85489 202.667 13.2175 199.715 13.0455 196.157C12.8916 193.02 10.045 190.61 9.46116 187.522C8.66916 183.35 12.1766 179.426 12.0182 175.185C11.8055 168.901 4.11629 165.326 2.57302 159.227C1.66788 155.633 3.0799 151.917 3.67277 148.251C4.39268 143.787 3.88426 139.211 2.20192 135.014C1.4778 133.206 0.540981 131.501 0.156296 129.589C-0.22839 127.677 0.05673 125.52 1.46423 124.2C2.82194 122.952 4.85851 122.754 6.61448 123.255C11.3122 124.612 13.6067 129.829 14.8015 134.557C15.9963 139.286 16.9557 144.553 20.7573 147.618C22.6355 149.132 24.9889 149.901 27.1703 150.931C31.5149 152.984 34.9907 155.258 35.3618 160.149C35.8144 166.37 35.8551 172.731 34.6965 178.883C34.1353 181.862 33.3388 184.855 33.5787 187.875C33.8185 190.895 35.1355 193.752 35.9954 196.682C36.0904 197.012 36.1855 197.346 36.2669 197.681C37.4074 202.332 37.0408 207.039 36.3575 211.785Z" fill="#30C59B"/>
<path d="M33.7185 238C33.421 237.472 33.2496 236.892 33.2157 236.298C32.7851 232.63 33.0001 228.922 33.8525 225.318C33.8765 225.212 33.9052 225.106 33.9339 225C33.7616 229.342 34.3074 233.72 33.7185 238Z" fill="url(#paint15_linear_0_355)"/>
<path d="M72.2479 141.335C70.9899 143.015 69.1813 144.194 67.7935 145.765C63.4063 150.733 64.051 158.288 65.1612 164.85C66.2714 171.412 67.4354 178.747 63.7018 184.234C62.1484 186.492 59.8876 188.208 58.2178 190.403C56.3581 192.863 55.3036 195.846 55.2005 198.938C55.0572 203.586 57.0807 208.219 56.2122 212.785C54.9274 219.528 48.0287 223.493 44.4786 229.355C42.2099 233.146 41.3916 237.643 42.1776 242C39.8669 241.616 37.6006 240.997 35.4132 240.153C34.815 239.974 34.2724 239.642 33.8374 239.191C33.7757 239.118 33.7203 239.039 33.6718 238.956C33.3943 238.418 33.234 237.827 33.2017 237.222C32.799 233.476 33.0001 229.689 33.7971 226.008C33.8195 225.9 33.8464 225.792 33.8732 225.683C34.5089 222.888 35.449 220.146 35.7356 217.292C35.8879 215.442 35.8519 213.58 35.6281 211.737C36.3041 206.995 36.6667 202.294 35.5252 197.678C35.4446 197.344 35.3506 197.01 35.2565 196.68C35.3416 196.391 35.4401 196.102 35.552 195.818C36.6757 192.9 38.8514 190.471 39.8407 187.503C41.1435 183.588 40.2168 179.325 40.2526 175.201C40.3108 168.079 43.4938 161.201 48.6062 156.342C50.4282 154.612 52.5726 153.266 53.4187 150.783C54.5513 147.445 53.8664 143.624 53.0561 140.314C52.1025 136.502 51.1982 132.122 53.45 128.915C54.5692 127.326 56.3331 126.291 58.1685 125.677C62.5826 124.205 67.8517 125.131 71.1063 128.477C74.3609 131.824 75.0503 137.613 72.2479 141.335Z" fill="#30C59B"/>
<path d="M152.829 70.4534C152.829 70.4534 134.028 73.3653 125.332 94.1386C116.635 114.912 121.158 140.648 121.31 142.913C121.462 145.177 147.958 155 155.532 155C163.107 155 164.685 147.396 164.685 147.396L151.3 141.686L191.967 136.98H199.269L195.247 143.773C195.247 143.773 203.184 144.607 208.488 144.797C213.793 144.987 217.395 134.476 217.989 129.25C218.584 124.024 194.559 78.1522 190.97 75.435C187.382 72.7177 177.644 66.0786 152.829 70.4534Z" fill="#2BD0D0"/>
<path d="M175.853 30.9249C175.853 30.9249 179.289 32.8477 178.98 39.0686C178.671 45.2894 176.734 54.6501 174.779 57.0751C172.823 59.5001 165.983 60.4502 165.983 60.4502C165.983 60.4502 169.714 69.2679 172.491 71.5436C175.268 73.8193 169.701 82.2027 164.286 79.452C158.871 76.7013 152.594 69.7927 152.594 69.7927C152.594 69.7927 157.109 61.4726 155.583 57.0932C154.056 52.7137 148.226 37.3448 152.594 33.1463C156.962 28.9478 166.38 22.9306 175.853 30.9249Z" fill="url(#paint16_linear_0_355)"/>
<path opacity="0.25" d="M145.889 100L143 136.332L151.825 141L159 139.738L150.048 128.645L145.889 100Z" fill="white"/>
<path opacity="0.25" d="M193 98C193 98 204.939 126.79 199.647 137L195.569 136.206L193 98Z" fill="white"/>
<path d="M160.094 145.697C160.094 145.697 155.465 149.547 157.531 152.541C159.597 155.536 162.064 155.45 164.121 154.111C166.178 152.772 170.218 149.594 175.031 151.052C179.845 152.511 181.013 153.439 181.013 153.439C181.013 153.439 183.549 151.895 182.891 150.347C182.233 148.798 177.199 143.78 175.74 143.13C174.281 142.48 168.225 144.478 168.225 144.478C168.225 144.478 163.776 143.306 160.094 145.697Z" fill="url(#paint17_linear_0_355)"/>
<path d="M200.794 137.065C200.794 137.065 196.537 137.571 195.462 140.37C194.387 143.169 194 143.51 194 143.51C194 143.51 196.404 143.97 197.404 142.667C198.403 141.364 199.443 141.912 199.443 141.912L199.146 143.583C199.146 143.583 205.677 144.568 208.628 143.51C211.578 142.451 212.845 141.208 212.845 141.208L214 138.382C214 138.382 211.214 136.361 209.112 136.048C207.01 135.735 200.794 137.065 200.794 137.065Z" fill="url(#paint18_linear_0_355)"/>
<path d="M223.406 167C223.406 167 238.235 178.354 236.917 193.712C235.599 209.07 233.663 231.875 233.663 231.875C233.663 231.875 227.683 234.407 223.72 231.875C219.757 229.342 217.358 194.69 215.394 191.381C213.431 188.072 201.62 173.152 189 171.868L223.406 167Z" fill="#25233A"/>
<path d="M149 178.159C149 178.159 156.041 184.888 168.593 187.001C181.144 189.114 186.995 190.877 190.831 201.692C194.667 212.508 198.347 235.785 199.551 238.387C200.755 240.989 205.876 239.661 205.876 239.661C205.876 239.661 208.772 236.333 208.772 217.824C208.772 192.021 210.562 186.732 204.112 180.25C197.662 173.767 191.793 172 191.793 172L149 178.159Z" fill="#3F3D56"/>
<path d="M199 240L200.235 249.465H202.547C202.547 249.465 217.441 250.256 217.908 249.914C218.375 249.573 217.191 242.419 211.548 242.621C205.905 242.824 205.535 241.272 205.535 241.272L199 240Z" fill="#25233A"/>
<path d="M225 232.771L227.345 242L252.97 238.526C252.97 238.526 253.872 232.463 245.754 233.065C243.612 233.22 242.016 234.708 239.441 234.722C236.865 234.735 234.399 233.693 233.1 232L225 232.771Z" fill="#25233A"/>
<path d="M313.111 114.805L216.458 119.994C214.121 120.117 212.126 118.319 212 115.976C212 115.904 212 115.827 212 115.755V47.1003C212.002 44.32 214.22 42.0508 216.993 41.992L313.25 40.001C314.485 39.9756 315.679 40.4432 316.57 41.3007C317.461 42.1582 317.975 43.3354 318 44.5732V109.638C317.997 112.388 315.85 114.656 313.111 114.805Z" fill="#2BD0D0"/>
<path d="M319.11 114.805L222.454 119.994C220.116 120.114 218.123 118.314 218 115.972C218 115.9 218 115.828 218 115.755V47.1001C217.997 44.3196 220.215 42.0483 222.989 41.9919L319.259 40.0008C321.825 39.9531 323.946 41.9963 324 44.5685V109.638C323.997 112.388 321.85 114.657 319.11 114.805Z" fill="#2BD0D0"/>
<path d="M319.11 114.805L222.454 119.994C220.116 120.114 218.123 118.314 218 115.972C218 115.9 218 115.828 218 115.755V47.1001C217.997 44.3196 220.215 42.0483 222.989 41.9919L319.259 40.0008C321.825 39.9531 323.946 41.9963 324 44.5685V109.638C323.997 112.388 321.85 114.657 319.11 114.805Z" fill="url(#paint19_linear_0_355)"/>
<path d="M289.845 141.377L265.134 144C265.134 144 257.609 142.486 258.016 141.377C258.423 140.269 266.292 139.201 266.292 139.201V94.5194C266.224 94.4202 265.188 93.1045 262.351 92.2664C261.801 92.1038 261.242 91.9743 260.677 91.8788C260.191 91.808 259.718 91.6653 259.274 91.4553C257.586 90.5856 259.45 89.0716 262.07 89.004C262.481 88.9897 262.891 89.0138 263.297 89.0761H282.302C282.302 89.0761 289.497 91.0948 289.845 101.17C290.194 111.246 289.845 141.377 289.845 141.377Z" fill="#3A3054"/>
<path d="M270 141.472L265.286 144C265.286 144 257.6 142.486 258.016 141.377C258.432 140.269 266.483 139.201 266.483 139.201V94.5158C266.386 94.4121 265.207 93.227 262.458 92.2626C261.434 91.9113 260.383 91.64 259.315 91.4515C257.591 90.5817 259.495 89.0676 262.171 89C264.45 89.3019 268.937 91.7354 269.228 93.1233C269.519 94.5113 270 141.472 270 141.472Z" fill="#51466B"/>
<path d="M179 235C178.119 236.001 177.709 236.371 178.23 235.547C178.5 235.388 178.757 235.205 179 235Z" fill="url(#paint20_linear_0_355)"/>
<defs>
<linearGradient id="paint0_linear_0_355" x1="138" y1="235" x2="145" y2="235" gradientUnits="userSpaceOnUse">
<stop stop-color="#183866"/>
<stop offset="1" stop-color="#1A7FC1"/>
</linearGradient>
<linearGradient id="paint1_linear_0_355" x1="155.995" y1="234.001" x2="160" y2="234.001" gradientUnits="userSpaceOnUse">
<stop/>
<stop offset="0.99" stop-opacity="0.01"/>
</linearGradient>
<linearGradient id="paint2_linear_0_355" x1="178.988" y1="54.7108" x2="186.517" y2="69.8013" gradientUnits="userSpaceOnUse">
<stop/>
<stop offset="0.99" stop-opacity="0.01"/>
</linearGradient>
<linearGradient id="paint3_linear_0_355" x1="196.019" y1="-91.8294" x2="165.694" y2="-91.9015" gradientUnits="userSpaceOnUse">
<stop/>
<stop offset="0.99" stop-opacity="0.01"/>
</linearGradient>
<linearGradient id="paint4_linear_0_355" x1="241.252" y1="30.4701" x2="233.422" y2="-4.03322" gradientUnits="userSpaceOnUse">
<stop/>
<stop offset="0.99" stop-opacity="0.01"/>
</linearGradient>
<linearGradient id="paint5_linear_0_355" x1="201.924" y1="67.159" x2="199.94" y2="66.5326" gradientUnits="userSpaceOnUse">
<stop/>
<stop offset="0.99" stop-opacity="0.01"/>
</linearGradient>
<linearGradient id="paint6_linear_0_355" x1="175.071" y1="34.8134" x2="163.616" y2="47.4642" gradientUnits="userSpaceOnUse">
<stop/>
<stop offset="0.99" stop-opacity="0.01"/>
</linearGradient>
<linearGradient id="paint7_linear_0_355" x1="355.236" y1="-13.8776" x2="22.0699" y2="-86.2256" gradientUnits="userSpaceOnUse">
<stop/>
<stop offset="1" stop-opacity="0.01"/>
</linearGradient>
<linearGradient id="paint8_linear_0_355" x1="144.221" y1="136.513" x2="322.219" y2="136.513" gradientUnits="userSpaceOnUse">
<stop stop-color="#183866"/>
<stop offset="1" stop-color="#1A7FC1"/>
</linearGradient>
<linearGradient id="paint9_linear_0_355" x1="51.869" y1="123.808" x2="52.8866" y2="195.627" gradientUnits="userSpaceOnUse">
<stop/>
<stop offset="0.99" stop-opacity="0.01"/>
</linearGradient>
<linearGradient id="paint10_linear_0_355" x1="133.696" y1="141.282" x2="139.875" y2="172.917" gradientUnits="userSpaceOnUse">
<stop/>
<stop offset="0.99" stop-opacity="0.01"/>
</linearGradient>
<linearGradient id="paint11_linear_0_355" x1="161.329" y1="148.127" x2="160.928" y2="160.43" gradientUnits="userSpaceOnUse">
<stop/>
<stop offset="0.99" stop-opacity="0.01"/>
</linearGradient>
<linearGradient id="paint12_linear_0_355" x1="86.0351" y1="-2.10904" x2="56.2714" y2="-6.28257" gradientUnits="userSpaceOnUse">
<stop/>
<stop offset="0.99" stop-opacity="0.01"/>
</linearGradient>
<linearGradient id="paint13_linear_0_355" x1="90.3867" y1="17.2072" x2="66.7212" y2="10.9207" gradientUnits="userSpaceOnUse">
<stop/>
<stop offset="0.99" stop-opacity="0.01"/>
</linearGradient>
<linearGradient id="paint14_linear_0_355" x1="-129.945" y1="222.865" x2="-130.366" y2="284.774" gradientUnits="userSpaceOnUse">
<stop/>
<stop offset="0.99" stop-opacity="0.01"/>
</linearGradient>
<linearGradient id="paint15_linear_0_355" x1="62.2068" y1="12.7089" x2="58.6851" y2="12.7967" gradientUnits="userSpaceOnUse">
<stop/>
<stop offset="0.99" stop-opacity="0.01"/>
</linearGradient>
<linearGradient id="paint16_linear_0_355" x1="150.989" y1="80.0058" x2="178.999" y2="80.0058" gradientUnits="userSpaceOnUse">
<stop stop-color="#ECC4D7"/>
<stop offset="0.42" stop-color="#EFD4D1"/>
<stop offset="1" stop-color="#F2EAC9"/>
</linearGradient>
<linearGradient id="paint17_linear_0_355" x1="182.748" y1="129.405" x2="208.748" y2="129.405" gradientUnits="userSpaceOnUse">
<stop stop-color="#ECC4D7"/>
<stop offset="0.42" stop-color="#EFD4D1"/>
<stop offset="1" stop-color="#F2EAC9"/>
</linearGradient>
<linearGradient id="paint18_linear_0_355" x1="218.861" y1="133.235" x2="238.861" y2="133.235" gradientUnits="userSpaceOnUse">
<stop stop-color="#ECC4D7"/>
<stop offset="0.42" stop-color="#EFD4D1"/>
<stop offset="1" stop-color="#F2EAC9"/>
</linearGradient>
<linearGradient id="paint19_linear_0_355" x1="305.774" y1="108.482" x2="222.19" y2="205.854" gradientUnits="userSpaceOnUse">
<stop stop-color="#362958" stop-opacity="0.500601"/>
<stop offset="1" stop-color="#34313D" stop-opacity="0.01"/>
</linearGradient>
<linearGradient id="paint20_linear_0_355" x1="218.125" y1="-107.835" x2="216.959" y2="-108.266" gradientUnits="userSpaceOnUse">
<stop/>
<stop offset="0.99" stop-opacity="0.01"/>
</linearGradient>
</defs>
</svg>
